<?xml version="1.0" standalone="no"?>
<!DOCTYPE svg PUBLIC "-//W3C//DTD SVG 20010904//EN"
 "http://www.w3.org/TR/2001/REC-SVG-20010904/DTD/svg10.dtd">
<svg version="1.0" xmlns="http://www.w3.org/2000/svg"
 width="377.000000pt" height="377.000000pt" viewBox="0 0 377.000000 377.000000"
 preserveAspectRatio="xMidYMid meet">
<metadata>
Created by potrace 1.11, written by Peter Selinger 2001-2013
</metadata>
<g transform="translate(0.000000,377.000000) scale(0.100000,-0.100000)"
fill="#000000" stroke="none">
<path d="M981 3131 l-109 -108 26 -54 c40 -80 38 -171 -5 -259 -99 -204 -341
-317 -505 -235 -17 8 -33 15 -36 15 -2 0 -58 -53 -123 -119 l-119 -118 887
-887 887 -887 109 109 109 109 -15 43 c-31 92 7 205 110 321 153 173 310 247
413 194 l33 -17 115 116 115 116 -884 885 c-486 486 -887 885 -891 885 -4 0
-56 -49 -117 -109z"/>
<path d="M1772 3087 l-112 -112 19 -31 c10 -17 22 -41 26 -55 4 -13 314 -331
688 -706 l682 -683 -220 -221 -220 -220 -46 50 c-26 29 -54 51 -66 51 -54 0
-230 -154 -278 -244 l-19 -35 220 -220 c120 -121 221 -221 224 -221 5 0 138
129 194 188 26 28 28 34 18 59 -43 107 6 232 146 373 144 145 284 202 368 151
l31 -19 94 93 c52 50 104 103 117 117 l22 24 -859 860 c-473 472 -872 871
-888 886 l-29 28 -112 -113z"/>
</g>
</svg>
